<svg width="1200" height="820" viewBox="0 0 1200 820" fill="none" xmlns="http://www.w3.org/2000/svg" role="img" aria-labelledby="title desc">
  <title id="title">Child rights advocacy field illustration</title>
  <desc id="desc">Abstract field notes, policy documents, and child rights signals in ECRAN brand colors.</desc>
  <rect width="1200" height="820" rx="28" fill="#FBFCFD"/>
  <path d="M0 122H1200M0 246H1200M0 370H1200M0 494H1200M0 618H1200M0 742H1200M142 0V820M284 0V820M426 0V820M568 0V820M710 0V820M852 0V820M994 0V820M1136 0V820" stroke="#D8E5EA" stroke-opacity=".58"/>
  <rect x="84" y="82" width="408" height="504" rx="18" fill="#FFFFFF" stroke="#D8E5EA" stroke-width="2"/>
  <rect x="126" y="128" width="178" height="22" rx="11" fill="#24306F"/>
  <rect x="126" y="180" width="304" height="12" rx="6" fill="#D8E5EA"/>
  <rect x="126" y="214" width="246" height="12" rx="6" fill="#D8E5EA"/>
  <rect x="126" y="248" width="278" height="12" rx="6" fill="#D8E5EA"/>
  <rect x="126" y="328" width="304" height="132" rx="14" fill="#DFF4F6"/>
  <path d="M154 424C194 360 253 351 301 396C336 429 374 424 404 366" stroke="#0B8FA7" stroke-width="12" stroke-linecap="round"/>
  <circle cx="179" cy="386" r="18" fill="#24306F"/>
  <circle cx="288" cy="390" r="18" fill="#0B8FA7"/>
  <circle cx="395" cy="368" r="18" fill="#151B26"/>
  <rect x="126" y="504" width="122" height="14" rx="7" fill="#5F6B7A" fill-opacity=".42"/>
  <rect x="270" y="504" width="88" height="14" rx="7" fill="#5F6B7A" fill-opacity=".28"/>
  <rect x="548" y="148" width="548" height="298" rx="24" fill="#EEF6F7" stroke="#D8E5EA" stroke-width="2"/>
  <path d="M646 326C687 258 737 218 799 231C866 245 879 322 945 323C997 324 1021 285 1054 236" stroke="#24306F" stroke-width="16" stroke-linecap="round"/>
  <path d="M644 346C700 342 721 393 775 381C835 367 837 289 901 289C960 289 974 348 1032 345" stroke="#0B8FA7" stroke-width="16" stroke-linecap="round"/>
  <circle cx="646" cy="326" r="28" fill="#FFFFFF" stroke="#24306F" stroke-width="10"/>
  <circle cx="799" cy="231" r="28" fill="#FFFFFF" stroke="#0B8FA7" stroke-width="10"/>
  <circle cx="945" cy="323" r="28" fill="#FFFFFF" stroke="#24306F" stroke-width="10"/>
  <rect x="592" y="190" width="144" height="18" rx="9" fill="#24306F"/>
  <rect x="592" y="478" width="166" height="92" rx="16" fill="#FFFFFF" stroke="#D8E5EA" stroke-width="2"/>
  <rect x="790" y="478" width="166" height="92" rx="16" fill="#FFFFFF" stroke="#D8E5EA" stroke-width="2"/>
  <rect x="988" y="478" width="106" height="92" rx="16" fill="#FFFFFF" stroke="#D8E5EA" stroke-width="2"/>
  <circle cx="630" cy="524" r="17" fill="#0B8FA7"/>
  <circle cx="828" cy="524" r="17" fill="#24306F"/>
  <circle cx="1026" cy="524" r="17" fill="#151B26"/>
  <rect x="662" y="510" width="62" height="10" rx="5" fill="#5F6B7A" fill-opacity=".42"/>
  <rect x="662" y="532" width="82" height="10" rx="5" fill="#5F6B7A" fill-opacity=".28"/>
  <rect x="860" y="510" width="62" height="10" rx="5" fill="#5F6B7A" fill-opacity=".42"/>
  <rect x="860" y="532" width="52" height="10" rx="5" fill="#5F6B7A" fill-opacity=".28"/>
  <rect x="1058" y="510" width="22" height="10" rx="5" fill="#5F6B7A" fill-opacity=".42"/>
  <rect x="1058" y="532" width="28" height="10" rx="5" fill="#5F6B7A" fill-opacity=".28"/>
  <path d="M201 662C319 630 441 641 548 682C668 728 800 737 1034 650" stroke="#0B8FA7" stroke-width="3" stroke-dasharray="10 16" stroke-linecap="round"/>
  <circle cx="201" cy="662" r="10" fill="#24306F"/>
  <circle cx="548" cy="682" r="10" fill="#24306F"/>
  <circle cx="1034" cy="650" r="10" fill="#24306F"/>
</svg>
