<svg width="720" height="520" viewBox="0 0 720 520" fill="none" xmlns="http://www.w3.org/2000/svg" role="img" aria-labelledby="title desc">
  <title id="title">Child participation visual</title>
  <desc id="desc">A roundtable participation layout with equal voices in ECRAN colors.</desc>
  <rect width="720" height="520" rx="24" fill="#FBFCFD"/>
  <circle cx="360" cy="260" r="156" fill="#EEF6F7" stroke="#D8E5EA" stroke-width="2"/>
  <circle cx="360" cy="260" r="72" fill="#FFFFFF" stroke="#D8E5EA" stroke-width="2"/>
  <rect x="310" y="236" width="100" height="12" rx="6" fill="#24306F"/>
  <rect x="326" y="266" width="68" height="10" rx="5" fill="#0B8FA7"/>
  <circle cx="360" cy="86" r="38" fill="#24306F"/>
  <circle cx="520" cy="178" r="38" fill="#0B8FA7"/>
  <circle cx="520" cy="342" r="38" fill="#24306F"/>
  <circle cx="360" cy="434" r="38" fill="#0B8FA7"/>
  <circle cx="200" cy="342" r="38" fill="#151B26"/>
  <circle cx="200" cy="178" r="38" fill="#0B8FA7"/>
  <path d="M360 124V188M488 197L424 233M488 323L424 287M360 396V332M232 323L296 287M232 197L296 233" stroke="#D8E5EA" stroke-width="8" stroke-linecap="round"/>
</svg>
